<mxfile host="app.diagrams.net" agent="Mozilla/5.0 (Windows NT 10.0; Win64; x64) AppleWebKit/537.36 (KHTML, like Gecko) Chrome/130.0.0.0 Safari/537.36" version="25.0.3">
  <diagram id="rtoYzSJQ6LSXcxKMdwdl" name="第 1 页">
    <mxGraphModel dx="1434" dy="756" grid="1" gridSize="10" guides="1" tooltips="1" connect="1" arrows="1" fold="1" page="1" pageScale="1" pageWidth="827" pageHeight="1169" math="0" shadow="0">
      <root>
        <mxCell id="0" />
        <mxCell id="1" parent="0" />
        <mxCell id="e4JdGKDmKFxkFRG0AQ7t-1" value="" style="rounded=0;whiteSpace=wrap;html=1;dashed=1;strokeWidth=0.5;" parent="1" vertex="1">
          <mxGeometry x="100" y="309.5" width="540" height="85" as="geometry" />
        </mxCell>
        <mxCell id="e4JdGKDmKFxkFRG0AQ7t-13" value="Blobstore SDK" style="rounded=1;whiteSpace=wrap;html=1;" parent="1" vertex="1">
          <mxGeometry x="100" y="410" width="540" height="30" as="geometry" />
        </mxCell>
        <mxCell id="e4JdGKDmKFxkFRG0AQ7t-14" value="" style="group" parent="1" vertex="1" connectable="0">
          <mxGeometry x="100" y="470" width="540" height="70" as="geometry" />
        </mxCell>
        <mxCell id="e4JdGKDmKFxkFRG0AQ7t-10" value="&lt;font color=&quot;#ffffff&quot;&gt;Blobstore Cluster A&lt;/font&gt;" style="rounded=0;whiteSpace=wrap;html=1;fillColor=#0D7057;" parent="e4JdGKDmKFxkFRG0AQ7t-14" vertex="1">
          <mxGeometry width="170" height="70" as="geometry" />
        </mxCell>
        <mxCell id="e4JdGKDmKFxkFRG0AQ7t-11" value="&lt;font color=&quot;#ffffff&quot;&gt;Blobstore Cluster B&lt;/font&gt;" style="rounded=0;whiteSpace=wrap;html=1;fillColor=#0D7057;" parent="e4JdGKDmKFxkFRG0AQ7t-14" vertex="1">
          <mxGeometry x="200" width="170" height="70" as="geometry" />
        </mxCell>
        <mxCell id="e4JdGKDmKFxkFRG0AQ7t-12" value="&lt;font color=&quot;#ffffff&quot; style=&quot;font-size: 18px;&quot;&gt;...&lt;/font&gt;" style="rounded=0;whiteSpace=wrap;html=1;fillColor=#0D7057;" parent="e4JdGKDmKFxkFRG0AQ7t-14" vertex="1">
          <mxGeometry x="400" width="140" height="70" as="geometry" />
        </mxCell>
        <mxCell id="e4JdGKDmKFxkFRG0AQ7t-18" style="edgeStyle=orthogonalEdgeStyle;rounded=0;orthogonalLoop=1;jettySize=auto;html=1;exitX=0.5;exitY=1;exitDx=0;exitDy=0;entryX=0.41;entryY=0;entryDx=0;entryDy=0;entryPerimeter=0;dashed=1;" parent="1" source="e4JdGKDmKFxkFRG0AQ7t-13" target="e4JdGKDmKFxkFRG0AQ7t-11" edge="1">
          <mxGeometry relative="1" as="geometry" />
        </mxCell>
        <mxCell id="e4JdGKDmKFxkFRG0AQ7t-19" style="edgeStyle=orthogonalEdgeStyle;rounded=0;orthogonalLoop=1;jettySize=auto;html=1;exitX=0.25;exitY=1;exitDx=0;exitDy=0;entryX=0.779;entryY=0.03;entryDx=0;entryDy=0;entryPerimeter=0;dashed=1;" parent="1" source="e4JdGKDmKFxkFRG0AQ7t-13" target="e4JdGKDmKFxkFRG0AQ7t-10" edge="1">
          <mxGeometry relative="1" as="geometry" />
        </mxCell>
        <mxCell id="e4JdGKDmKFxkFRG0AQ7t-20" style="edgeStyle=orthogonalEdgeStyle;rounded=0;orthogonalLoop=1;jettySize=auto;html=1;exitX=0.75;exitY=1;exitDx=0;exitDy=0;entryX=0.064;entryY=0;entryDx=0;entryDy=0;entryPerimeter=0;dashed=1;" parent="1" edge="1">
          <mxGeometry relative="1" as="geometry">
            <mxPoint x="543.0000000000002" y="440.0000000000001" as="sourcePoint" />
            <mxPoint x="546.96" y="470.0000000000001" as="targetPoint" />
            <Array as="points">
              <mxPoint x="547" y="440" />
            </Array>
          </mxGeometry>
        </mxCell>
        <mxCell id="e4JdGKDmKFxkFRG0AQ7t-21" value="&lt;font style=&quot;font-size: 16px;&quot;&gt;Application&lt;/font&gt;" style="text;html=1;align=center;verticalAlign=middle;whiteSpace=wrap;rounded=0;" parent="1" vertex="1">
          <mxGeometry x="665" y="338" width="60" height="30" as="geometry" />
        </mxCell>
        <mxCell id="e4JdGKDmKFxkFRG0AQ7t-22" value="&lt;font style=&quot;font-size: 16px;&quot;&gt;Blobstore System&lt;/font&gt;" style="text;html=1;align=center;verticalAlign=middle;whiteSpace=wrap;rounded=0;" parent="1" vertex="1">
          <mxGeometry x="660" y="490" width="70" height="30" as="geometry" />
        </mxCell>
        <mxCell id="e4JdGKDmKFxkFRG0AQ7t-23" style="edgeStyle=orthogonalEdgeStyle;rounded=0;orthogonalLoop=1;jettySize=auto;html=1;exitX=0.5;exitY=1;exitDx=0;exitDy=0;entryX=0.119;entryY=-0.022;entryDx=0;entryDy=0;entryPerimeter=0;" parent="1" source="e4JdGKDmKFxkFRG0AQ7t-2" target="e4JdGKDmKFxkFRG0AQ7t-13" edge="1">
          <mxGeometry relative="1" as="geometry" />
        </mxCell>
        <mxCell id="e4JdGKDmKFxkFRG0AQ7t-24" style="edgeStyle=orthogonalEdgeStyle;rounded=0;orthogonalLoop=1;jettySize=auto;html=1;exitX=0.5;exitY=1;exitDx=0;exitDy=0;" parent="1" source="e4JdGKDmKFxkFRG0AQ7t-3" edge="1">
          <mxGeometry relative="1" as="geometry">
            <mxPoint x="285" y="410" as="targetPoint" />
            <Array as="points">
              <mxPoint x="285" y="410" />
              <mxPoint x="285" y="410" />
            </Array>
          </mxGeometry>
        </mxCell>
        <mxCell id="e4JdGKDmKFxkFRG0AQ7t-26" style="edgeStyle=orthogonalEdgeStyle;rounded=0;orthogonalLoop=1;jettySize=auto;html=1;exitX=0.75;exitY=1;exitDx=0;exitDy=0;" parent="1" source="e4JdGKDmKFxkFRG0AQ7t-5" edge="1">
          <mxGeometry relative="1" as="geometry">
            <mxPoint x="537" y="410" as="targetPoint" />
            <Array as="points">
              <mxPoint x="537" y="400" />
              <mxPoint x="537" y="400" />
            </Array>
          </mxGeometry>
        </mxCell>
        <mxCell id="e4JdGKDmKFxkFRG0AQ7t-27" style="edgeStyle=orthogonalEdgeStyle;rounded=0;orthogonalLoop=1;jettySize=auto;html=1;exitX=0.75;exitY=1;exitDx=0;exitDy=0;entryX=0.607;entryY=-0.006;entryDx=0;entryDy=0;entryPerimeter=0;" parent="1" source="e4JdGKDmKFxkFRG0AQ7t-4" target="e4JdGKDmKFxkFRG0AQ7t-13" edge="1">
          <mxGeometry relative="1" as="geometry">
            <mxPoint x="428" y="410" as="targetPoint" />
            <Array as="points">
              <mxPoint x="428" y="388" />
            </Array>
          </mxGeometry>
        </mxCell>
        <mxCell id="e4JdGKDmKFxkFRG0AQ7t-2" value="OCS" style="rounded=1;whiteSpace=wrap;html=1;fillColor=#f5f5f5;fontColor=#333333;strokeColor=#666666;" parent="1" vertex="1">
          <mxGeometry x="120" y="325" width="90" height="40" as="geometry" />
        </mxCell>
        <mxCell id="e4JdGKDmKFxkFRG0AQ7t-3" value="CubeFS" style="rounded=1;whiteSpace=wrap;html=1;fillColor=#f5f5f5;fontColor=#333333;strokeColor=#666666;" parent="1" vertex="1">
          <mxGeometry x="240" y="325" width="90" height="40" as="geometry" />
        </mxCell>
        <mxCell id="e4JdGKDmKFxkFRG0AQ7t-4" value="OFS" style="rounded=1;whiteSpace=wrap;html=1;fillColor=#f5f5f5;strokeColor=#666666;fontColor=#333333;" parent="1" vertex="1">
          <mxGeometry x="360" y="325" width="90" height="40" as="geometry" />
        </mxCell>
        <mxCell id="e4JdGKDmKFxkFRG0AQ7t-5" value="KV" style="rounded=1;whiteSpace=wrap;html=1;fillColor=#f5f5f5;fontColor=#333333;strokeColor=#666666;" parent="1" vertex="1">
          <mxGeometry x="470" y="325" width="90" height="40" as="geometry" />
        </mxCell>
        <mxCell id="e4JdGKDmKFxkFRG0AQ7t-6" value="&lt;font style=&quot;font-size: 18px;&quot;&gt;...&lt;/font&gt;" style="text;html=1;align=center;verticalAlign=middle;whiteSpace=wrap;rounded=0;" parent="1" vertex="1">
          <mxGeometry x="570" y="327" width="60" height="30" as="geometry" />
        </mxCell>
        <mxCell id="e4JdGKDmKFxkFRG0AQ7t-7" value="&lt;font style=&quot;font-size: 12px;&quot;&gt;Service On Blobstore&lt;/font&gt;" style="text;html=1;align=center;verticalAlign=middle;whiteSpace=wrap;rounded=0;" parent="1" vertex="1">
          <mxGeometry x="288" y="368" width="140" height="30" as="geometry" />
        </mxCell>
      </root>
    </mxGraphModel>
  </diagram>
</mxfile>
